<svg width="57" height="57" viewBox="0 0 57 57" fill="none" xmlns="http://www.w3.org/2000/svg">
<path d="M28.7382 56.4634C44.3381 56.4634 56.9843 43.8236 56.9843 28.2317C56.9843 12.6398 44.3381 0 28.7382 0C13.1384 0 0.492188 12.6398 0.492188 28.2317C0.492188 43.8236 13.1384 56.4634 28.7382 56.4634Z" fill="#EC171E"/>
<path d="M11.183 21.898L12.6078 17.4666L8.85156 14.7181L13.5045 14.7081L14.9591 10.2966L16.4037 14.7081L21.0467 14.7281L17.2905 17.4666L18.7153 21.898L14.9491 19.1595L11.183 21.898Z" fill="#FFDE00"/>
<path d="M24.1453 24.2781L25.7096 24.9154L26.8056 23.6208L26.686 25.3038L28.2602 25.9411L26.6162 26.3594L26.4867 28.0324L25.5901 26.6083L23.9561 27.0067L25.0321 25.7121L24.1453 24.2781Z" fill="#FFDE00"/>
<path d="M32.634 15.7838L30.97 15.495L30.1731 16.9887L29.9339 15.3157L28.27 15.007L29.7845 14.2701L29.5553 12.5872L30.7409 13.8021L32.2554 13.0652L31.4582 14.5589L32.634 15.7838Z" fill="#FFDE00"/>
<path d="M29.0971 23.3519L29.6152 21.7387L28.2502 20.7429H29.9441L30.472 19.1296L30.9902 20.7429H32.694L31.3289 21.7387L31.837 23.3519L30.472 22.3661L29.0971 23.3519Z" fill="#FFDE00"/>
<path d="M24.2251 8.66358L25.7594 9.38057L26.9152 8.14575L26.7159 9.81874L28.2402 10.5457L26.5864 10.8644L26.3771 12.5473L25.5502 11.0735L23.8962 11.3822L25.042 10.1374L24.2251 8.66358Z" fill="#FFDE00"/>
</svg>
