<svg width="65" height="65" viewBox="0 0 65 65" fill="none" xmlns="http://www.w3.org/2000/svg">
<rect width="64.0285" height="64.03" rx="32.0143" fill="#FF6700"/>
<path d="M4.85264 25.2873C8.56195 10.2635 23.7462 1.11429 38.7521 4.82558C53.7579 8.53688 62.9122 23.7195 59.2029 38.7433C55.4836 53.7571 40.3093 62.9163 25.3034 59.205C10.2976 55.4937 1.14334 40.3012 4.85264 25.2873Z" fill="#F5F5F5"/>
<path d="M57.9234 21.3678H36.2329V25.6547H59.2921C58.945 24.186 58.4887 22.7471 57.9135 21.3678M52.3792 12.7842H36.223V17.081H55.7017C54.7397 15.5528 53.6289 14.1139 52.3792 12.7842ZM11.805 51.3956H52.2503C53.4999 50.0857 54.6306 48.6567 55.6224 47.1087H8.44282C9.4247 48.6369 10.5454 50.0758 11.805 51.3956ZM38.752 4.83568C37.909 4.62729 37.066 4.45859 36.2329 4.32959V8.49736H47.2418C44.7028 6.8501 41.8563 5.59977 38.752 4.82575M59.9466 29.9415H36.2329V34.2383H59.9367C60.0557 32.7994 60.0557 31.3605 59.9565 29.9415M6.20136 42.812H57.8639C58.4093 41.512 58.8556 40.1525 59.2028 38.7434C59.2226 38.674 59.2326 38.5946 59.2524 38.5251H4.79297C5.15001 39.9938 5.61619 41.4326 6.19143 42.8219M25.2934 59.2151C26.9497 59.6219 28.606 59.8799 30.2524 59.9891H33.8129C38.5536 59.6815 43.0763 58.1731 46.9938 55.6923H17.0317C19.5112 57.2602 22.2883 58.4708 25.2934 59.2151Z" fill="#E42918"/>
<path d="M34.1104 32.6602L33.5054 32.2236L32.9003 32.6602L33.1285 31.9457L32.5234 31.5091H33.2672L33.4955 30.7946L33.7235 31.5091H34.4773L33.8723 31.9457L34.1004 32.6602H34.1104ZM31.135 10.0848L31.3631 10.7993L30.7581 10.3626L30.1531 10.7993L30.3812 10.0848L29.7762 9.64816H30.5201L30.7482 8.93368L30.9763 9.64816H31.7201L31.1151 10.0848H31.135ZM31.135 16.5349L31.3631 17.2494L30.7581 16.8127L30.1531 17.2494L30.3812 16.5349L29.7762 16.0983H30.5201L30.7482 15.3838L30.9763 16.0983H31.7201L31.1151 16.5349H31.135ZM31.0754 22.856L31.3035 23.5705L30.6985 23.1339L30.0935 23.5705L30.3216 22.856L29.7167 22.4194H30.4704L30.6985 21.7049L30.9266 22.4194H31.6705L31.0655 22.856H31.0754ZM31.254 29.8122L30.649 29.3756L30.0439 29.8122L30.2721 29.0977L29.667 28.6611H30.4208L30.649 27.9466L30.8771 28.6611H31.6309L31.0259 29.0977L31.254 29.8122ZM28.2786 13.2106L28.5067 13.9251L27.9017 13.4885L27.2967 13.9251L27.5248 13.2106L26.9199 12.774H27.6637L27.8918 12.0595L28.1199 12.774H28.8637L28.2588 13.2106H28.2786ZM28.2786 19.4623L28.5067 20.1767L27.9017 19.7401L27.2967 20.1767L27.5248 19.4623L26.9199 19.0256H27.6637L27.8918 18.3112L28.1199 19.0256H28.8637L28.2588 19.4623H28.2786ZM28.2786 25.8528L28.5067 26.5673L27.9017 26.1307L27.2967 26.5673L27.5248 25.8528L26.9199 25.4162H27.6637L27.8918 24.7017L28.1199 25.4162H28.8637L28.2588 25.8528H28.2786ZM28.5067 32.6701L27.9017 32.2335L27.2967 32.6701L27.5248 31.9556L26.9199 31.519H27.6637L27.8918 30.8045L28.1199 31.519H28.8637L28.2588 31.9556L28.4868 32.6701H28.5067ZM25.5313 10.0947L25.7594 10.8092L25.1544 10.3726L24.5495 10.8092L24.7775 10.0947L24.1726 9.65808H24.9164L25.1445 8.9436L25.3726 9.65808H26.1164L25.5115 10.0947H25.5313ZM25.5313 16.5448L25.7594 17.2593L25.1544 16.8227L24.5495 17.2593L24.7775 16.5448L24.1726 16.1082H24.9164L25.1445 15.3937L25.3726 16.1082H26.1164L25.5115 16.5448H25.5313ZM25.4817 22.8659L25.7098 23.5804L25.1048 23.1438L24.4998 23.5804L24.7279 22.8659L24.1229 22.4293H24.8668L25.0949 21.7148L25.3231 22.4293H26.0767L25.4718 22.8659H25.4817ZM25.6603 29.8221L25.0553 29.3855L24.4503 29.8221L24.6784 29.1076L24.0734 28.671H24.8173L25.0454 27.9566L25.2734 28.671H26.0173L25.4123 29.1076L25.6404 29.8221H25.6603ZM22.6849 6.9788L22.913 7.69328L22.308 7.25665L21.703 7.69328L21.9311 6.9788L21.3261 6.54218H22.07L22.2981 5.8277L22.5262 6.54218H23.2799L22.675 6.9788H22.6849ZM22.6849 13.2205L22.913 13.935L22.308 13.4984L21.703 13.935L21.9311 13.2205L21.3261 12.7839H22.07L22.2981 12.0694L22.5262 12.7839H23.2799L22.675 13.2205H22.6849ZM22.6849 19.4722L22.913 20.1866L22.308 19.75L21.703 20.1866L21.9311 19.4722L21.3261 19.0356H22.07L22.2981 18.3211L22.5262 19.0356H23.2799L22.675 19.4722H22.6849ZM22.6849 25.8627L22.913 26.5772L22.308 26.1406L21.703 26.5772L21.9311 25.8627L21.3261 25.4261H22.07L22.2981 24.7117L22.5262 25.4261H23.2799L22.675 25.8627H22.6849ZM22.913 32.68L22.308 32.2434L21.703 32.68L21.9311 31.9655L21.3261 31.5289H22.07L22.2981 30.8144L22.5262 31.5289H23.2799L22.675 31.9655L22.903 32.68H22.913ZM19.9376 9.88631L20.1657 10.6008L19.5607 10.1642L18.9557 10.6008L19.1838 9.88631L18.5788 9.44969H19.3227L19.5508 8.73521L19.7789 9.44969H20.5227L19.9177 9.88631H19.9376ZM19.9376 16.3364L20.1657 17.0509L19.5607 16.6143L18.9557 17.0509L19.1838 16.3364L18.5788 15.8998H19.3227L19.5508 15.1853L19.7789 15.8998H20.5227L19.9177 16.3364H19.9376ZM19.878 22.6575L20.1062 23.372L19.5011 22.9354L18.8962 23.372L19.1244 22.6575L18.5193 22.2209H19.2631L19.4913 21.5064L19.7194 22.2209H20.4633L19.8583 22.6575H19.878ZM20.0566 29.6137L19.4516 29.1771L18.8466 29.6137L19.0747 28.8993L18.4698 28.4626H19.2136L19.4417 27.7482L19.6698 28.4626H20.4236L19.8186 28.8993L20.0467 29.6137H20.0566ZM17.0812 13.2404L17.3093 13.9548L16.7043 13.5182L16.0994 13.9548L16.3274 13.2404L15.7225 12.8038H16.4663L16.7043 12.0893L16.9324 12.8038H17.6763L17.0713 13.2404H17.0812ZM17.0812 19.492L17.3093 20.2065L16.7043 19.7699L16.0994 20.2065L16.3274 19.492L15.7225 19.0554H16.4663L16.7043 18.3409L16.9324 19.0554H17.6763L17.0713 19.492H17.0812ZM17.0812 25.8826L17.3093 26.5971L16.7043 26.1604L16.0994 26.5971L16.3274 25.8826L15.7225 25.446H16.4663L16.7043 24.7315L16.9324 25.446H17.6763L17.0713 25.8826H17.0812ZM17.3093 32.6999L16.7043 32.2632L16.0994 32.6999L16.3274 31.9854L15.7225 31.5488H16.4663L16.7043 30.8343L16.9324 31.5488H17.6763L17.0713 31.9854L17.2994 32.6999H17.3093ZM14.3339 16.2868L14.562 17.0013L13.957 16.5647L13.3521 17.0013L13.5802 16.2868L12.9752 15.8502H13.729L13.957 15.1357L14.1851 15.8502H14.9389L14.3339 16.2868ZM14.2745 22.6079L14.5026 23.3224L13.8976 22.8858L13.2926 23.3224L13.5207 22.6079L12.9157 22.1713H13.6596L13.8877 21.4568L14.1158 22.1713H14.8695L14.2646 22.6079H14.2745ZM14.4529 29.5641L13.848 29.1275L13.243 29.5641L13.4711 28.8496L12.8661 28.413H13.6199L13.848 27.6985L14.0761 28.413H14.8199L14.2149 28.8496L14.443 29.5641H14.4529ZM27.6637 6.56202L27.8918 5.84755L28.1199 6.56202H28.8637L28.2588 6.99864L28.4868 7.71312L27.8819 7.27649L27.2769 7.71312L27.505 6.99864L26.9 6.56202H27.6438H27.6637ZM33.2574 25.446L33.4855 24.7315L33.7136 25.446H34.4575L33.8525 25.8826L34.0806 26.5971L33.4756 26.1604L32.8706 26.5971L33.0987 25.8826L32.4937 25.446H33.2376H33.2574ZM33.2574 19.0554L33.4855 18.3409L33.7136 19.0554H34.4575L33.8525 19.492L34.0806 20.2065L33.4756 19.7699L32.8706 20.2065L33.0987 19.492L32.4937 19.0554H33.2376H33.2574ZM33.2574 12.8038L33.4855 12.0893L33.7136 12.8038H34.4575L33.8525 13.2404L34.0806 13.9548L33.4756 13.5182L32.8706 13.9548L33.0987 13.2404L32.4937 12.8038H33.2376H33.2574ZM33.2574 6.56202L33.4855 5.84755L33.7136 6.56202H34.4575L33.8525 6.99864L34.0806 7.71312L33.4756 7.27649L32.8706 7.71312L33.0987 6.99864L32.4937 6.56202H33.2376H33.2574ZM11.4776 19.492L11.7057 20.2065L11.1007 19.7699L10.4957 20.2065L10.7238 19.492L10.1188 19.0554H10.8627L11.0907 18.3409L11.3188 19.0554H12.0726L11.4676 19.492H11.4776ZM11.4776 25.8826L11.7057 26.5971L11.1007 26.1604L10.4957 26.5971L10.7238 25.8826L10.1188 25.446H10.8627L11.0907 24.7315L11.3188 25.446H12.0726L11.4676 25.8826H11.4776ZM11.7057 32.6999L11.1007 32.2632L10.4957 32.6999L10.7238 31.9854L10.1188 31.5488H10.8627L11.0907 30.8343L11.3188 31.5488H12.0726L11.4676 31.9854L11.6957 32.6999H11.7057ZM8.67083 22.4988L8.89892 23.2132L8.29394 22.7766L7.68896 23.2132L7.91706 22.4988L7.31208 22.0621H8.06585L8.29394 21.3477L8.52204 22.0621H9.26588L8.6609 22.4988H8.67083ZM8.84928 29.455L8.2443 29.0183L7.63933 29.455L7.86742 28.7405L7.26244 28.3039H8.00628L8.23438 27.5894L8.46259 28.3039H9.21624L8.61126 28.7405L8.83936 29.455H8.84928ZM6.10212 32.6999L5.49702 32.2632L4.89204 32.6999L5.12013 31.9854L4.51515 31.5488H5.26892L5.49702 30.8343L5.72523 31.5488H6.46908L5.86398 31.9854L6.09219 32.6999H6.10212ZM36.213 4.36899C35.9353 4.32929 33.9021 4.10106 33.6244 4.07129L28.5959 4.25983C23.3791 4.90484 18.4896 7.00857 14.4629 10.2436L14.562 10.5611L14.3041 10.3726C13.3818 11.1267 12.4992 11.9503 11.676 12.8137H12.0925L11.4875 13.2503L11.7156 13.9648L11.1106 13.5281L10.8726 13.7068C10.3073 14.3617 9.7717 15.0365 9.26588 15.741H9.34518L9.16673 15.87C9.04771 16.0387 8.91878 16.2173 8.79977 16.396L8.95849 16.8921L8.62119 16.654C6.91531 19.2439 5.61611 22.1515 4.83259 25.3368C4.82267 25.3765 4.81273 25.4162 4.80281 25.4658H5.26892L5.49702 24.7513L5.72523 25.4658H6.46908L5.86398 25.9024L6.09219 26.6169L5.48721 26.1803L4.88211 26.6169L5.11032 25.9024L4.75317 25.6444C4.06883 28.5619 3.86063 31.4892 4.08875 34.3273H36.203V4.37891L36.213 4.36899Z" fill="#24356B"/>
</svg>
