<svg width="57" height="57" viewBox="0 0 57 57" fill="none" xmlns="http://www.w3.org/2000/svg">
<path d="M0.859467 21.452C4.59947 6.31196 19.9094 -2.90803 35.0394 0.831967C50.1694 4.57197 59.3994 19.872 55.6594 35.012C51.9094 50.142 36.6095 59.372 21.4795 55.632C6.34946 51.892 -2.88053 36.582 0.859467 21.452Z" fill="#F5F5F5"/>
<path d="M54.3694 17.502H32.4994V21.822H55.7494C55.3994 20.342 54.9394 18.892 54.3594 17.502M48.7793 8.85203H32.4894V13.182H52.1293C51.1593 11.642 50.0393 10.192 48.7793 8.85203ZM7.86938 47.762H48.6493C49.9093 46.442 51.0493 45.002 52.0493 43.442H4.47937C5.46937 44.982 6.59938 46.432 7.86938 47.762ZM35.0393 0.842033C34.1893 0.632033 33.3394 0.462031 32.4994 0.332031V4.53203H43.5994C41.0394 2.87203 38.1693 1.61203 35.0393 0.832031M56.4093 26.142H32.4994V30.472H56.3993C56.5193 29.022 56.5193 27.572 56.4193 26.142M2.21936 39.112H54.3093C54.8593 37.802 55.3093 36.432 55.6593 35.012C55.6793 34.942 55.6894 34.862 55.7094 34.792H0.799316C1.15932 36.272 1.62935 37.722 2.20935 39.122M21.4694 55.642C23.1394 56.052 24.8094 56.312 26.4694 56.422H30.0593C34.8393 56.112 39.3994 54.592 43.3494 52.092H13.1393C15.6393 53.672 18.4394 54.892 21.4694 55.642Z" fill="#E42918"/>
<path d="M30.3595 28.882L29.7495 28.442L29.1394 28.882L29.3695 28.162L28.7594 27.722H29.5094L29.7395 27.002L29.9695 27.722H30.7295L30.1195 28.162L30.3495 28.882H30.3595ZM27.3595 6.13202L27.5895 6.85202L26.9795 6.41202L26.3695 6.85202L26.5995 6.13202L25.9895 5.69202H26.7395L26.9695 4.97202L27.1995 5.69202H27.9495L27.3395 6.13202H27.3595ZM27.3595 12.632L27.5895 13.352L26.9795 12.912L26.3695 13.352L26.5995 12.632L25.9895 12.192H26.7395L26.9695 11.472L27.1995 12.192H27.9495L27.3395 12.632H27.3595ZM27.2994 19.002L27.5294 19.722L26.9194 19.282L26.3095 19.722L26.5394 19.002L25.9294 18.562H26.6895L26.9194 17.842L27.1494 18.562H27.8994L27.2894 19.002H27.2994ZM27.4795 26.012L26.8695 25.572L26.2594 26.012L26.4895 25.292L25.8794 24.852H26.6394L26.8695 24.132L27.0995 24.852H27.8595L27.2495 25.292L27.4795 26.012ZM24.4795 9.28202L24.7095 10.002L24.0995 9.56202L23.4895 10.002L23.7195 9.28202L23.1095 8.84202H23.8595L24.0895 8.12202L24.3195 8.84202H25.0695L24.4595 9.28202H24.4795ZM24.4795 15.582L24.7095 16.302L24.0995 15.862L23.4895 16.302L23.7195 15.582L23.1095 15.142H23.8595L24.0895 14.422L24.3195 15.142H25.0695L24.4595 15.582H24.4795ZM24.4795 22.022L24.7095 22.742L24.0995 22.302L23.4895 22.742L23.7195 22.022L23.1095 21.582H23.8595L24.0895 20.862L24.3195 21.582H25.0695L24.4595 22.022H24.4795ZM24.7095 28.892L24.0995 28.452L23.4895 28.892L23.7195 28.172L23.1095 27.732H23.8595L24.0895 27.012L24.3195 27.732H25.0695L24.4595 28.172L24.6895 28.892H24.7095ZM21.7095 6.14202L21.9395 6.86202L21.3295 6.42202L20.7195 6.86202L20.9495 6.14202L20.3395 5.70202H21.0895L21.3195 4.98202L21.5494 5.70202H22.2994L21.6895 6.14202H21.7095ZM21.7095 12.642L21.9395 13.362L21.3295 12.922L20.7195 13.362L20.9495 12.642L20.3395 12.202H21.0895L21.3195 11.482L21.5494 12.202H22.2994L21.6895 12.642H21.7095ZM21.6594 19.012L21.8894 19.732L21.2794 19.292L20.6694 19.732L20.8994 19.012L20.2894 18.572H21.0394L21.2694 17.852L21.4995 18.572H22.2594L21.6494 19.012H21.6594ZM21.8395 26.022L21.2295 25.582L20.6195 26.022L20.8495 25.302L20.2395 24.862H20.9895L21.2195 24.142L21.4495 24.862H22.1995L21.5895 25.302L21.8195 26.022H21.8395ZM18.8395 3.00202L19.0695 3.72202L18.4595 3.28202L17.8495 3.72202L18.0795 3.00202L17.4695 2.56202H18.2195L18.4495 1.84202L18.6794 2.56202H19.4395L18.8295 3.00202H18.8395ZM18.8395 9.29202L19.0695 10.012L18.4595 9.57202L17.8495 10.012L18.0795 9.29202L17.4695 8.85202H18.2195L18.4495 8.13202L18.6794 8.85202H19.4395L18.8295 9.29202H18.8395ZM18.8395 15.592L19.0695 16.312L18.4595 15.872L17.8495 16.312L18.0795 15.592L17.4695 15.152H18.2195L18.4495 14.432L18.6794 15.152H19.4395L18.8295 15.592H18.8395ZM18.8395 22.032L19.0695 22.752L18.4595 22.312L17.8495 22.752L18.0795 22.032L17.4695 21.592H18.2195L18.4495 20.872L18.6794 21.592H19.4395L18.8295 22.032H18.8395ZM19.0695 28.902L18.4595 28.462L17.8495 28.902L18.0795 28.182L17.4695 27.742H18.2195L18.4495 27.022L18.6794 27.742H19.4395L18.8295 28.182L19.0595 28.902H19.0695ZM16.0695 5.93202L16.2994 6.65202L15.6895 6.21202L15.0795 6.65202L15.3095 5.93202L14.6995 5.49202H15.4495L15.6794 4.77202L15.9094 5.49202H16.6594L16.0494 5.93202H16.0695ZM16.0695 12.432L16.2994 13.152L15.6895 12.712L15.0795 13.152L15.3095 12.432L14.6995 11.992H15.4495L15.6794 11.272L15.9094 11.992H16.6594L16.0494 12.432H16.0695ZM16.0094 18.802L16.2395 19.522L15.6294 19.082L15.0194 19.522L15.2495 18.802L14.6394 18.362H15.3894L15.6195 17.642L15.8495 18.362H16.5995L15.9895 18.802H16.0094ZM16.1895 25.812L15.5795 25.372L14.9695 25.812L15.1995 25.092L14.5895 24.652H15.3395L15.5695 23.932L15.7994 24.652H16.5595L15.9495 25.092L16.1794 25.812H16.1895ZM13.1895 9.31202L13.4194 10.032L12.8095 9.59202L12.1995 10.032L12.4294 9.31202L11.8195 8.87202H12.5695L12.8095 8.15202L13.0394 8.87202H13.7894L13.1794 9.31202H13.1895ZM13.1895 15.612L13.4194 16.332L12.8095 15.892L12.1995 16.332L12.4294 15.612L11.8195 15.172H12.5695L12.8095 14.452L13.0394 15.172H13.7894L13.1794 15.612H13.1895ZM13.1895 22.052L13.4194 22.772L12.8095 22.332L12.1995 22.772L12.4294 22.052L11.8195 21.612H12.5695L12.8095 20.892L13.0394 21.612H13.7894L13.1794 22.052H13.1895ZM13.4194 28.922L12.8095 28.482L12.1995 28.922L12.4294 28.202L11.8195 27.762H12.5695L12.8095 27.042L13.0394 27.762H13.7894L13.1794 28.202L13.4094 28.922H13.4194ZM10.4194 12.382L10.6494 13.102L10.0394 12.662L9.42945 13.102L9.65943 12.382L9.04944 11.942H9.80945L10.0394 11.222L10.2694 11.942H11.0294L10.4194 12.382ZM10.3595 18.752L10.5895 19.472L9.9795 19.032L9.36951 19.472L9.59949 18.752L8.98951 18.312H9.73951L9.96949 17.592L10.1995 18.312H10.9595L10.3495 18.752H10.3595ZM10.5394 25.762L9.92945 25.322L9.31946 25.762L9.54944 25.042L8.93946 24.602H9.69947L9.92945 23.882L10.1594 24.602H10.9094L10.2994 25.042L10.5294 25.762H10.5394ZM23.8595 2.58202L24.0895 1.86202L24.3195 2.58202H25.0695L24.4595 3.02202L24.6895 3.74202L24.0795 3.30202L23.4695 3.74202L23.6995 3.02202L23.0895 2.58202H23.8395H23.8595ZM29.4995 21.612L29.7295 20.892L29.9595 21.612H30.7095L30.0995 22.052L30.3295 22.772L29.7195 22.332L29.1095 22.772L29.3395 22.052L28.7295 21.612H29.4795H29.4995ZM29.4995 15.172L29.7295 14.452L29.9595 15.172H30.7095L30.0995 15.612L30.3295 16.332L29.7195 15.892L29.1095 16.332L29.3395 15.612L28.7295 15.172H29.4795H29.4995ZM29.4995 8.87202L29.7295 8.15202L29.9595 8.87202H30.7095L30.0995 9.31202L30.3295 10.032L29.7195 9.59202L29.1095 10.032L29.3395 9.31202L28.7295 8.87202H29.4795H29.4995ZM29.4995 2.58202L29.7295 1.86202L29.9595 2.58202H30.7095L30.0995 3.02202L30.3295 3.74202L29.7195 3.30202L29.1095 3.74202L29.3395 3.02202L28.7295 2.58202H29.4795H29.4995ZM7.53943 15.612L7.76941 16.332L7.15943 15.892L6.54944 16.332L6.77942 15.612L6.16944 15.172H6.91944L7.14942 14.452L7.3794 15.172H8.13941L7.52942 15.612H7.53943ZM7.53943 22.052L7.76941 22.772L7.15943 22.332L6.54944 22.772L6.77942 22.052L6.16944 21.612H6.91944L7.14942 20.892L7.3794 21.612H8.13941L7.52942 22.052H7.53943ZM7.76941 28.922L7.15943 28.482L6.54944 28.922L6.77942 28.202L6.16944 27.762H6.91944L7.14942 27.042L7.3794 27.762H8.13941L7.52942 28.202L7.7594 28.922H7.76941ZM4.70948 18.642L4.93946 19.362L4.32947 18.922L3.71949 19.362L3.94947 18.642L3.33948 18.202H4.09949L4.32947 17.482L4.55945 18.202H5.30945L4.69947 18.642H4.70948ZM4.88941 25.652L4.27942 25.212L3.66944 25.652L3.89942 24.932L3.28943 24.492H4.03943L4.26941 23.772L4.49952 24.492H5.2594L4.64942 24.932L4.8794 25.652H4.88941ZM2.11951 28.922L1.5094 28.482L0.899418 28.922L1.1294 28.202L0.519413 27.762H1.27942L1.5094 27.042L1.73951 27.762H2.48951L1.8794 28.202L2.1095 28.922H2.11951ZM32.4795 0.372021C32.1995 0.332021 30.1495 0.102021 29.8695 0.0720215L24.7994 0.26202C19.5394 0.91202 14.6094 3.03202 10.5494 6.29202L10.6494 6.61202L10.3894 6.42202C9.45941 7.18202 8.56951 8.01202 7.73951 8.88202H8.15943L7.54944 9.32202L7.77942 10.042L7.16944 9.60202L6.92945 9.78202C6.35945 10.442 5.81945 11.122 5.30945 11.832H5.38941L5.20948 11.962C5.08948 12.132 4.95948 12.312 4.83948 12.492L4.99952 12.992L4.65943 12.752C2.93943 15.362 1.62948 18.292 0.839482 21.502C0.829482 21.542 0.819452 21.582 0.809452 21.632H1.27942L1.5094 20.912L1.73951 21.632H2.48951L1.8794 22.072L2.1095 22.792L1.49952 22.352L0.889408 22.792L1.11951 22.072L0.759404 21.812C0.0694035 24.752 -0.140518 27.702 0.0894817 30.562H32.4695V0.382019L32.4795 0.372021Z" fill="#24356B"/>
</svg>
