<svg width="65" height="65" viewBox="0 0 65 65" fill="none" xmlns="http://www.w3.org/2000/svg">
<rect width="64.03" height="64.03" rx="32.015" fill="#FF6700"/>
<g clip-path="url(#clip0_524_16726)">
<path fill-rule="evenodd" clip-rule="evenodd" d="M4 4H60.03V60.03H4V4Z" fill="#229E45"/>
<path fill-rule="evenodd" clip-rule="evenodd" d="M32.6058 48.3643L57.7537 32.0368L32.4526 15.6655L7.2063 32.0806L32.5949 48.3643H32.6058Z" fill="#F8E509"/>
<path fill-rule="evenodd" clip-rule="evenodd" d="M43.5603 32.0149C43.6045 33.4398 43.3619 34.859 42.8468 36.1883C42.3317 37.5176 41.5547 38.7297 40.5619 39.7527C39.5691 40.7758 38.3808 41.5888 37.0676 42.1435C35.7544 42.6983 34.3431 42.9834 32.9175 42.9819C31.4919 42.9804 30.0812 42.6924 28.7692 42.135C27.4571 41.5776 26.2705 40.7621 25.2798 39.737C24.2891 38.7119 23.5146 37.4982 23.0022 36.1679C22.4899 34.8376 22.2502 33.4178 22.2973 31.993C22.3887 29.2325 23.5503 26.6158 25.5364 24.6963C27.5225 22.7768 30.1773 21.7052 32.9394 21.708C35.7015 21.7109 38.3541 22.788 40.3362 24.7115C42.3184 26.6351 43.4746 29.2542 43.5603 32.0149Z" fill="#2B49A3"/>
<path fill-rule="evenodd" clip-rule="evenodd" d="M29.4215 38.384L29.0932 38.1871L28.754 38.3622L28.8306 37.9791L28.568 37.7056L28.94 37.6618L29.1151 37.3116L29.2793 37.6727L29.6513 37.7384L29.3668 38.001M36.5566 40.1897L36.2283 39.9927L35.8781 40.1678L35.9547 39.7848L35.6921 39.5112L36.0751 39.4674L36.2502 39.1172L36.4034 39.4784L36.7755 39.544L36.5019 39.8067M33.4815 37.3006L33.197 37.1365L32.9015 37.2788L32.9672 36.9505L32.7483 36.7097L33.0657 36.6769L33.2189 36.3814L33.3502 36.6878L33.6785 36.7425L33.4377 36.9614M40.6823 36.261L40.3977 36.0969L40.1132 36.2391L40.1789 35.9218L39.96 35.692L40.2773 35.6482L40.4196 35.3637L40.5619 35.6591L40.8792 35.7139L40.6385 35.9327M33.3502 34.1052L33.0219 33.9082L32.6827 34.0833L32.7593 33.7003L32.4966 33.4267L32.8687 33.3829L33.0438 33.0437L33.2079 33.3939L33.58 33.4595L33.2955 33.7222M24.5736 30.8112L24.2453 30.6143L23.917 30.7893L23.9827 30.4063L23.72 30.1327L24.1031 30.089L24.2782 29.7388L24.4314 30.0999L24.8034 30.1656L24.5299 30.4282M25.6351 35.1886L25.3068 35.0025L24.9676 35.1667L25.0442 34.7946L24.7815 34.5101L25.1536 34.4663L25.3287 34.138L25.4929 34.4773L25.8649 34.5539L25.5804 34.8056M36.5894 29.1916L36.3049 29.0275L35.9985 29.1697L36.0642 28.8414L35.8453 28.5897L36.1736 28.5569L36.3268 28.2505L36.4691 28.5678L36.7974 28.6226L36.5457 28.8524M35.9985 32.0478L35.7359 31.9056L35.506 32.015L35.5498 31.7524L35.3747 31.5663L35.6374 31.5335L35.7577 31.2927L35.8672 31.5444L36.1298 31.5882L35.9328 31.7633M24.0702 35.9765L23.8514 35.8452L23.6216 35.9546L23.6653 35.7029L23.4902 35.5169L23.7529 35.495L23.8623 35.2761L23.9717 35.495L24.2234 35.5497L24.0374 35.7248M40.737 36.9833L40.5509 36.8957L40.3649 36.9723L40.4087 36.7863L40.2664 36.644L40.4743 36.6222L40.5728 36.458L40.6494 36.6331L40.8573 36.6659L40.7041 36.7973" fill="#FFFFEF"/>
<path fill-rule="evenodd" clip-rule="evenodd" d="M24.0807 35.9871L23.8619 35.8559L23.6322 35.9652L23.6869 35.7137L23.501 35.5277L23.7525 35.5059L23.8729 35.2871L23.9822 35.5059L24.2338 35.5605L24.0479 35.7355" fill="#FFFFEF"/>
<path fill-rule="evenodd" clip-rule="evenodd" d="M24.081 35.9873L23.8621 35.856L23.6323 35.9654L23.687 35.7137L23.501 35.5277L23.7527 35.5058L23.8731 35.2869L23.9825 35.5058L24.2342 35.5605L24.0481 35.7356M27.5719 35.9873L27.353 35.856L27.1342 35.9654L27.1779 35.7137L27.0029 35.5277L27.2545 35.5058L27.364 35.276L27.4734 35.5058L27.7251 35.5605L27.5391 35.7356M27.1342 37.1582L26.9153 37.0269L26.6964 37.1363L26.7402 36.8846L26.5651 36.6986L26.8168 36.6658L26.9262 36.4469L27.0357 36.6658L27.2874 36.7205L27.1013 36.8956M34.4006 35.0352L34.1817 34.9039L33.9519 35.0133L33.9957 34.7616L33.8206 34.5756L34.0723 34.5537L34.1926 34.3239L34.3021 34.5537L34.5428 34.5975L34.3568 34.7726M32.2666 35.0352L32.0477 34.9039L31.8179 35.0133L31.8726 34.7616L31.6976 34.5756L31.9492 34.5537L32.0587 34.3239L32.1681 34.5537L32.4198 34.5975L32.2338 34.7726M26.4885 34.2911L26.3572 34.2145L26.2149 34.2801L26.2368 34.116L26.1274 34.0065L26.2915 33.9847L26.3681 33.8424L26.4229 33.9956L26.587 34.0175L26.4776 34.1269M40.4632 37.9243L40.2443 37.8039L40.0145 37.9133L40.0692 37.6616L39.8941 37.4756L40.1458 37.4428L40.2553 37.2239L40.3647 37.4428L40.6164 37.4975L40.4304 37.6726M38.6794 38.1541L38.5043 38.0446L38.3183 38.1541L38.3621 37.9352L38.2089 37.782L38.4277 37.7601L38.5153 37.5741L38.6028 37.7601L38.8217 37.8039L38.6575 37.9462M39.533 38.1431L39.3579 38.0337L39.1828 38.1322L39.2156 37.9352L39.0843 37.7929L39.2813 37.7711L39.3688 37.596L39.4455 37.7711L39.6424 37.8039L39.5002 37.9462M41.9296 36.042L41.7654 35.9435L41.5903 36.0311L41.6341 35.845L41.5028 35.7028L41.6888 35.6809L41.7764 35.5167L41.853 35.6918L42.039 35.7246L41.8968 35.856M38.6904 39.336L38.4715 39.2156L38.2526 39.325L38.3073 39.0843L38.1322 38.9201L38.373 38.8873L38.4934 38.6794L38.6028 38.8982L38.8326 38.942L38.6575 39.0952M38.7013 40.288L38.5043 40.1786L38.3073 40.2771L38.3511 40.0363L38.1979 39.8722L38.4168 39.8394L38.5262 39.6314L38.6138 39.8503L38.8326 39.8941L38.6685 40.0473M37.0817 38.1431L36.9175 38.0446L36.7424 38.1322L36.7862 37.9352L36.6549 37.8039L36.8409 37.782L36.9285 37.6069L37.0051 37.782L37.1911 37.8148L37.0489 37.9462M35.5715 38.1431L35.4074 38.0446L35.2323 38.1322L35.276 37.9352L35.1447 37.8039L35.3307 37.782L35.4183 37.6069L35.4949 37.782L35.6809 37.8148L35.5496 37.9462M32.9998 35.8888L32.8357 35.7903L32.6606 35.8779L32.7043 35.6918L32.573 35.5496L32.7591 35.5277L32.8466 35.3635L32.9232 35.5386L33.1092 35.5714L32.967 35.6918M33.2843 40.4522L33.1421 40.3756L32.9998 40.4522L33.0326 40.288L32.9232 40.1786L33.0764 40.1458L33.153 40.0035L33.2187 40.1567L33.3828 40.1786L33.2625 40.288M29.4104 33.0654L29.0821 32.8794L28.7428 33.0435L28.8194 32.6715L28.5568 32.3869L28.9289 32.3432L29.104 32.0039L29.2681 32.3541L29.6402 32.4198L29.3557 32.6824" fill="#FFFFEF"/>
<path fill-rule="evenodd" clip-rule="evenodd" d="M42.8599 35.8453C43.0658 35.3087 43.2269 34.756 43.3414 34.1928C37.6946 29.2246 31.3913 26.6748 23.4245 27.2C23.1391 27.7577 22.9047 28.3401 22.7241 28.94C26.379 28.5709 30.0704 28.9959 33.5457 30.1858C37.0211 31.3757 40.1983 33.3026 42.8599 35.8343V35.8453Z" fill="white"/>
<path d="M40.321 33.0435L40.518 33.1529C40.4873 33.2138 40.4795 33.2837 40.4961 33.3499C40.507 33.3937 40.5508 33.4484 40.6055 33.4812C40.6712 33.525 40.7259 33.5469 40.7806 33.5469C40.8244 33.5469 40.8682 33.5141 40.89 33.4812C40.901 33.4593 40.9119 33.4374 40.901 33.4046L40.8682 33.3171L40.7368 33.1748C40.6671 33.1038 40.6146 33.0177 40.5836 32.9231C40.5645 32.8519 40.5717 32.7762 40.6038 32.7099C40.636 32.6436 40.691 32.591 40.7587 32.562C40.8171 32.5361 40.882 32.5285 40.9448 32.5401C41.0238 32.5573 41.0983 32.5909 41.1636 32.6386C41.2585 32.7053 41.334 32.7959 41.3825 32.9012C41.3958 32.9497 41.3977 33.0005 41.3882 33.0498C41.3787 33.0992 41.3581 33.1457 41.3278 33.1858L41.1308 33.0654C41.1527 33.0107 41.1636 32.9559 41.1527 32.9122C41.1417 32.8793 41.098 32.8356 41.0433 32.8027C40.9885 32.759 40.9338 32.748 40.89 32.748C40.8774 32.7484 40.8649 32.7515 40.8536 32.7572C40.8423 32.7629 40.8323 32.7709 40.8244 32.7808C40.8168 32.7919 40.8119 32.8046 40.81 32.8179C40.8081 32.8312 40.8093 32.8447 40.8134 32.8575C40.8134 32.9012 40.8682 32.9669 40.9448 33.0435L41.1089 33.2624C41.1388 33.3168 41.1525 33.3786 41.1487 33.4406C41.1448 33.5026 41.1234 33.5622 41.087 33.6125C41.0488 33.6668 40.9956 33.7086 40.9338 33.7329C40.8687 33.7627 40.7957 33.7704 40.7259 33.7548C40.6429 33.7337 40.5648 33.6965 40.4961 33.6454C40.3927 33.5833 40.3151 33.4862 40.2772 33.3718C40.2444 33.2733 40.2553 33.1639 40.321 33.0435ZM39.358 32.4197L39.5768 32.5292C39.5512 32.5837 39.5435 32.645 39.555 32.7042C39.5659 32.759 39.6097 32.8137 39.6644 32.8465C39.73 32.8903 39.7848 32.9012 39.8395 32.8903C39.8833 32.8903 39.927 32.8684 39.9489 32.8246C39.9593 32.8044 39.9631 32.7815 39.9599 32.759C39.9599 32.7261 39.9489 32.7042 39.9161 32.6714L39.7848 32.5292C39.7127 32.4622 39.6566 32.3799 39.6206 32.2884C39.6061 32.2449 39.6015 32.1988 39.6072 32.1533C39.6129 32.1079 39.6287 32.0643 39.6534 32.0258C39.686 31.9776 39.7315 31.9396 39.7848 31.9163C39.8433 31.8911 39.908 31.8835 39.9708 31.8944C40.0365 31.8944 40.1021 31.9273 40.1897 31.982C40.2991 32.0586 40.3867 32.1352 40.4085 32.2337C40.4249 32.2805 40.4305 32.3304 40.4248 32.3797C40.4191 32.429 40.4023 32.4763 40.3757 32.5182L40.1678 32.3978C40.2006 32.3431 40.2006 32.2884 40.1897 32.2556C40.1678 32.2118 40.135 32.179 40.0802 32.1461C40.0333 32.1099 39.9754 32.0906 39.9161 32.0914C39.9025 32.0931 39.8895 32.0979 39.878 32.1055C39.8666 32.1131 39.8572 32.1233 39.8504 32.1352C39.8446 32.1471 39.8416 32.1602 39.8416 32.1735C39.8416 32.1868 39.8446 32.1999 39.8504 32.2118C39.8504 32.2446 39.9051 32.3103 39.9817 32.3978C40.0693 32.4744 40.124 32.551 40.1568 32.5948C40.1905 32.6495 40.2075 32.7128 40.2055 32.777C40.2036 32.8412 40.1828 32.9034 40.1459 32.9559C40.1086 33.0127 40.0557 33.0573 39.9936 33.0845C39.9314 33.1117 39.8626 33.1203 39.7957 33.1091C39.7098 33.0924 39.628 33.059 39.555 33.0107C39.4501 32.9526 39.3688 32.8597 39.3251 32.748C39.294 32.6384 39.3057 32.521 39.358 32.4197ZM38.1761 32.0914L38.7889 31.1065L39.5221 31.5442L39.4127 31.7193L38.8874 31.391L38.7451 31.6099L39.2485 31.9163L39.1391 32.0914L38.6467 31.785L38.4825 32.0586L39.0297 32.3869L38.9312 32.562L38.1761 32.1024V32.0914ZM36.447 30.6797L36.5455 30.5046L36.9833 30.7454L36.7753 31.1503C36.5979 31.1896 36.4123 31.1664 36.2501 31.0846C36.1522 31.0338 36.0692 30.9584 36.0093 30.8658C35.9515 30.7822 35.9209 30.6828 35.9218 30.5812C35.9218 30.4718 35.9546 30.3733 36.0093 30.2748C36.0598 30.1737 36.1351 30.0871 36.2282 30.0231C36.3048 29.9575 36.4142 29.9246 36.5236 29.9246C36.6002 29.9246 36.6987 29.9575 36.7972 30.0012C36.9051 30.0519 36.9935 30.1365 37.0489 30.242C37.0927 30.3295 37.1036 30.428 37.0818 30.5375L36.8519 30.4718C36.8643 30.4162 36.8565 30.3581 36.8301 30.3076C36.8009 30.254 36.7547 30.2116 36.6987 30.1873C36.6599 30.1632 36.6163 30.1478 36.571 30.1422C36.5257 30.1365 36.4797 30.1407 36.4361 30.1544C36.3595 30.1873 36.2829 30.2639 36.2172 30.3733C36.1639 30.4739 36.1447 30.5891 36.1625 30.7016C36.1844 30.7892 36.2391 30.8548 36.3376 30.8986L36.4799 30.9424H36.6221L36.6878 30.811L36.447 30.6797ZM28.918 28.8194L29.0931 27.6594L29.4433 27.7141L29.5308 28.5348L29.8591 27.7688L30.1984 27.8235L30.0342 28.9835L29.8154 28.9507L29.9467 28.0424L29.5856 28.9178L29.3667 28.885L29.2682 27.9329L29.1369 28.8522L28.918 28.8194ZM27.7471 28.6771L27.8565 27.5171L28.7101 27.5937L28.6991 27.7907L28.0644 27.736L28.0425 27.9877L28.6225 28.0424L28.6116 28.2394L28.0316 28.1846L27.9988 28.5129L28.6444 28.5677L28.6225 28.7646L27.7471 28.6771Z" fill="#309E3A"/>
<path d="M23.8513 27.9438C23.8513 27.8344 23.8732 27.7251 23.906 27.6485L24.0154 27.4954L24.1795 27.386C24.2603 27.3582 24.3458 27.3471 24.431 27.3532C24.5069 27.3527 24.5821 27.368 24.6518 27.3981C24.7215 27.4282 24.7841 27.4725 24.8357 27.5282C24.9451 27.6376 24.9779 27.7798 24.9779 27.9657C24.9779 28.1626 24.9123 28.3048 24.8138 28.4032C24.7591 28.4563 24.6938 28.4973 24.6222 28.5237C24.5506 28.5501 24.4743 28.5612 24.3982 28.5563C24.3231 28.5582 24.2484 28.5447 24.1788 28.5164C24.1092 28.4882 24.0461 28.4459 23.9935 28.3923C23.9395 28.334 23.8987 28.2647 23.8742 28.1892C23.8496 28.1136 23.8418 28.0336 23.8513 27.9548V27.9438Z" fill="#309E3A"/>
<path d="M24.092 27.944C24.092 28.0753 24.1139 28.1847 24.1795 28.2503C24.2342 28.3269 24.3107 28.3597 24.3982 28.3597C24.4429 28.3605 24.4873 28.3522 24.5287 28.3353C24.5701 28.3184 24.6076 28.2932 24.6389 28.2612C24.6936 28.1956 24.7264 28.0972 24.7373 27.9659C24.7373 27.8237 24.7154 27.7253 24.6498 27.6597C24.6233 27.6269 24.59 27.6001 24.5523 27.5813C24.5146 27.5624 24.4732 27.5518 24.4311 27.5503C24.3217 27.5503 24.2451 27.5831 24.1904 27.6487C24.1248 27.7144 24.092 27.8128 24.0811 27.944H24.092Z" fill="#F7FFFF"/>
<path d="M25.2302 28.5561L25.2412 27.3857H25.7334C25.8646 27.3857 25.9521 27.4076 26.0068 27.4295C26.0615 27.4514 26.1162 27.4842 26.138 27.5389C26.1599 27.5936 26.1927 27.6482 26.1927 27.7248C26.1927 27.8123 26.1599 27.8779 26.1162 27.9436C26.0615 27.9982 25.9849 28.0311 25.8755 28.0529C25.9302 28.0748 25.974 28.1076 26.0068 28.1404L26.138 28.3373L26.2802 28.5561H25.9958L25.8318 28.3045C25.7917 28.2435 25.7479 28.185 25.7005 28.1295C25.6823 28.1101 25.6598 28.0951 25.6349 28.0857C25.5997 28.0732 25.5629 28.0658 25.5255 28.0639H25.4708V28.5561H25.2302Z" fill="#309E3A"/>
<path d="M25.4709 27.8781H25.6459C25.7186 27.8872 25.7921 27.8872 25.8647 27.8781L25.9194 27.8234C25.9413 27.8016 25.9522 27.7687 25.9522 27.7359C25.9522 27.6922 25.9413 27.6594 25.9194 27.6375C25.8963 27.613 25.8653 27.5975 25.8319 27.5938H25.4819V27.8781H25.4709Z" fill="white"/>
<path d="M26.5651 27.4409L26.9917 27.4628C27.0658 27.4639 27.1393 27.475 27.2104 27.4956C27.2727 27.5191 27.3289 27.5565 27.3745 27.605C27.4256 27.6655 27.4629 27.7364 27.4839 27.8128C27.5058 27.8894 27.5058 27.9769 27.5058 28.0862C27.509 28.17 27.4941 28.2534 27.462 28.3309C27.4299 28.4083 27.3814 28.4778 27.3198 28.5347C27.2761 28.5675 27.2214 28.6003 27.1558 28.6222H26.937L26.4995 28.6112L26.5651 27.4409Z" fill="#309E3A"/>
<path d="M26.7838 27.6489L26.751 28.4146L26.926 28.4364H27.0682L27.1666 28.3817C27.1994 28.3599 27.2104 28.3271 27.2322 28.2724L27.265 28.0536L27.2541 27.8567C27.2322 27.8021 27.2213 27.7692 27.1885 27.7474C27.1593 27.7151 27.1213 27.6923 27.0791 27.6817C27.0179 27.6689 26.9557 27.6616 26.8932 27.6599H26.7838V27.6489Z" fill="white"/>
<path d="M32.2886 29.5301L32.562 28.3926L32.9229 28.4801C33.0651 28.5129 33.1526 28.5457 33.1964 28.5676C33.2511 28.6004 33.3058 28.6441 33.3276 28.7098C33.3604 28.7863 33.3604 28.8629 33.3386 28.9504C33.3289 29.0068 33.3046 29.0597 33.2682 29.1038C33.2317 29.148 33.1843 29.1818 33.1308 29.202C33.0931 29.2205 33.0523 29.2316 33.0104 29.2348C32.9291 29.2277 32.8485 29.2131 32.7698 29.191L32.6167 29.1582L32.5073 29.5848L32.2886 29.5301Z" fill="#309E3A"/>
<path d="M32.737 28.644L32.6604 28.9722L32.7917 28.994C32.8792 29.0159 32.9448 29.0269 32.9776 29.0159C33.0079 29.0128 33.0365 29.0007 33.0599 28.9812C33.0833 28.9618 33.1003 28.9358 33.1088 28.9065L33.0979 28.7862C33.0791 28.7509 33.0479 28.7237 33.0104 28.7097L32.8463 28.6659L32.737 28.644Z" fill="white"/>
<path d="M33.3721 29.8586L33.7549 28.7539L34.2252 28.918C34.3105 28.942 34.3916 28.9789 34.4658 29.0273C34.5096 29.0711 34.5424 29.1258 34.5643 29.1914C34.5861 29.257 34.5643 29.3117 34.5424 29.3773C34.5205 29.4648 34.4658 29.5195 34.4002 29.5523C34.3625 29.5742 34.3209 29.5884 34.2777 29.594C34.2345 29.5997 34.1906 29.5967 34.1486 29.5852L34.2361 29.7164L34.3018 29.9352L34.3564 30.1977L34.0939 30.1102L34.0174 29.8148C34.0003 29.7441 33.9784 29.6747 33.9518 29.607C33.9424 29.5821 33.9274 29.5597 33.908 29.5414C33.8748 29.5173 33.8379 29.4988 33.7986 29.4867L33.7549 29.4758L33.5908 29.9352L33.3721 29.8586Z" fill="#309E3A"/>
<path d="M33.8096 29.301L33.9736 29.3557L34.1814 29.4104C34.2143 29.4104 34.2361 29.4104 34.258 29.3885L34.3127 29.3119V29.2025C34.2988 29.1739 34.2757 29.1508 34.2471 29.1369L34.083 29.0822L33.908 29.0166L33.8096 29.301Z" fill="white"/>
<path d="M34.7398 29.8151C34.7675 29.7151 34.816 29.6219 34.8819 29.5417C34.9148 29.487 34.9694 29.4542 35.0241 29.4214C35.0782 29.3916 35.1377 29.373 35.1991 29.3667C35.2757 29.3667 35.3632 29.3667 35.4507 29.3995C35.5249 29.4181 35.5944 29.452 35.6547 29.4991C35.715 29.5462 35.7647 29.6054 35.8007 29.6729C35.8663 29.8042 35.8773 29.9683 35.8116 30.1433C35.7935 30.2219 35.7601 30.2963 35.7131 30.362C35.6662 30.4277 35.6068 30.4834 35.5382 30.5261C35.4707 30.5597 35.397 30.579 35.3217 30.5827C35.2464 30.5865 35.1712 30.5747 35.1007 30.5479C35.0265 30.5294 34.957 30.4955 34.8967 30.4484C34.8364 30.4013 34.7867 30.342 34.7507 30.2745C34.6864 30.1289 34.6825 29.9637 34.7398 29.8151Z" fill="#309E3A"/>
<path d="M34.9694 29.8806C34.9366 30.0009 34.9366 30.0993 34.9694 30.1868C35.0132 30.2743 35.0788 30.329 35.1663 30.3618C35.2538 30.3837 35.3304 30.3728 35.4069 30.329C35.4835 30.2853 35.5491 30.1978 35.5929 30.0665C35.6257 29.9353 35.6257 29.8368 35.5929 29.7493C35.5745 29.7089 35.5472 29.6732 35.5132 29.6448C35.4791 29.6164 35.439 29.5961 35.396 29.5853C35.3543 29.5717 35.31 29.5676 35.2665 29.5733C35.223 29.579 35.1813 29.5943 35.1444 29.6181C35.0679 29.6618 35.0132 29.7493 34.9694 29.8806Z" fill="white"/>
<path d="M37.0161 31.4453L37.5521 30.4062L37.9896 30.625C38.0989 30.6906 38.1755 30.7344 38.2083 30.7781C38.2521 30.8328 38.2739 30.8875 38.2849 30.9422C38.2958 30.9969 38.2849 31.0734 38.2411 31.1281C38.2083 31.2047 38.1536 31.2594 38.077 31.2922C38.0005 31.3141 37.9239 31.3141 37.8255 31.2812C37.8583 31.325 37.8802 31.3797 37.8911 31.4234L37.9239 31.6531L37.9458 31.9266L37.6942 31.7953L37.6614 31.4891L37.6286 31.2703C37.6192 31.2454 37.6042 31.2229 37.5849 31.2047C37.5556 31.1778 37.5224 31.1557 37.4864 31.1391L37.4427 31.1172L37.2239 31.5547L37.0161 31.4453Z" fill="#309E3A"/>
<path d="M37.5305 30.9534L37.6836 31.03L37.8805 31.1175C37.9133 31.1175 37.9352 31.1175 37.9571 31.0956C37.9866 31.0803 38.0107 31.0565 38.0263 31.0272C38.0419 30.9979 38.0483 30.9645 38.0446 30.9315C38.0328 30.8989 38.0094 30.8716 37.979 30.855C37.9326 30.8241 37.8852 30.7949 37.8368 30.7675L37.6727 30.6909L37.5305 30.9534Z" fill="white"/>
<path d="M41.3387 33.5796C41.4043 33.4702 41.4699 33.4046 41.5574 33.3608C41.6108 33.3253 41.67 33.2993 41.7324 33.2843C41.7902 33.2731 41.8496 33.2731 41.9074 33.2843C41.984 33.2952 42.0715 33.328 42.148 33.3937C42.2127 33.4331 42.2684 33.4856 42.3117 33.5477C42.355 33.6099 42.3849 33.6803 42.3996 33.7546C42.4155 33.9137 42.3727 34.0732 42.2793 34.203C42.2377 34.2736 42.1824 34.3352 42.1167 34.384C42.0509 34.4329 41.9761 34.468 41.8965 34.4874C41.8224 34.5013 41.7463 34.4997 41.6729 34.4827C41.5995 34.4658 41.5304 34.4339 41.4699 34.389C41.4053 34.3495 41.3495 34.2971 41.3062 34.2349C41.2629 34.1728 41.233 34.1023 41.2183 34.028C41.2062 33.9498 41.2095 33.8699 41.2283 33.7929C41.2471 33.716 41.2809 33.6435 41.3277 33.5796H41.3387Z" fill="#309E3A"/>
<path d="M41.5356 33.6997C41.47 33.8091 41.4372 33.9185 41.4481 34.006C41.4556 34.0502 41.4721 34.0924 41.4965 34.1301C41.521 34.1677 41.5529 34.1999 41.5903 34.2247C41.625 34.2488 41.6644 34.2651 41.7059 34.2727C41.7474 34.2802 41.79 34.2788 41.8309 34.2685C41.9184 34.2466 42.0059 34.181 42.0825 34.0606C42.1591 33.9513 42.1919 33.8528 42.17 33.7653C42.17 33.6778 42.1153 33.6122 42.0387 33.5466C41.9622 33.481 41.8747 33.481 41.7872 33.5028C41.6997 33.5247 41.6231 33.5903 41.5466 33.6997H41.5356Z" fill="white"/>
<path d="M30.9644 29.0598L31.1503 28.2285L31.7628 28.3707L31.73 28.5129L31.2925 28.4035L31.2487 28.5895L31.6534 28.6879L31.6206 28.8301L31.2159 28.7207L31.1612 28.9504L31.6206 29.0598L31.5878 29.202L30.9644 29.0598Z" fill="#309E3A"/>
</g>
<defs>
<clipPath id="clip0_524_16726">
<rect x="4" y="4" width="56.03" height="56.03" rx="28.015" fill="white"/>
</clipPath>
</defs>
</svg>
