<svg width="56" height="56" viewBox="0 0 56 56" fill="none" xmlns="http://www.w3.org/2000/svg">
<g clip-path="url(#clip0_381_15770)">
<path fill-rule="evenodd" clip-rule="evenodd" d="M0 0H56V56H0V0Z" fill="#229E45"/>
<path fill-rule="evenodd" clip-rule="evenodd" d="M28.5905 44.3407L53.7249 28.0219L28.4374 11.6594L3.20459 28.0657L28.5796 44.3407H28.5905Z" fill="#F8E509"/>
<path fill-rule="evenodd" clip-rule="evenodd" d="M39.5391 27.9999C39.5833 29.424 39.3408 30.8425 38.826 32.171C38.3112 33.4996 37.5346 34.7111 36.5423 35.7336C35.5501 36.756 34.3624 37.5686 33.0499 38.1231C31.7374 38.6775 30.3268 38.9624 28.902 38.961C27.4772 38.9595 26.0673 38.6717 24.7559 38.1145C23.4446 37.5574 22.2586 36.7424 21.2684 35.7178C20.2783 34.6933 19.5042 33.4802 18.9921 32.1506C18.48 30.821 18.2404 29.402 18.2876 27.978C18.3789 25.219 19.5399 22.6036 21.5249 20.6852C23.5099 18.7667 26.1634 17.6957 28.9239 17.6985C31.6845 17.7013 34.3357 18.7779 36.3168 20.7004C38.2979 22.6229 39.4535 25.2406 39.5391 27.9999Z" fill="#2B49A3"/>
<path fill-rule="evenodd" clip-rule="evenodd" d="M25.4079 34.3657L25.0797 34.1688L24.7407 34.3438L24.8172 33.961L24.5547 33.6875L24.9266 33.6438L25.1016 33.2938L25.2657 33.6547L25.6375 33.7204L25.3532 33.9829M32.5391 36.1704L32.211 35.9735L31.861 36.1485L31.9375 35.7657L31.675 35.4922L32.0579 35.4485L32.2329 35.0985L32.386 35.4594L32.7579 35.525L32.4844 35.7876M29.4657 33.2829L29.1813 33.1188L28.886 33.261L28.9516 32.9329L28.7329 32.6922L29.05 32.6594L29.2032 32.3641L29.3344 32.6704L29.6625 32.7251L29.4219 32.9438M36.6625 32.2438L36.3782 32.0797L36.0938 32.2219L36.1594 31.9047L35.9407 31.675L36.2579 31.6313L36.4 31.3469L36.5422 31.6422L36.8594 31.6969L36.6188 31.9157M29.3344 30.0891L29.0063 29.8922L28.6672 30.0672L28.7438 29.6844L28.4813 29.411L28.8532 29.3672L29.0282 29.0282L29.1922 29.3782L29.5641 29.4438L29.2797 29.7063M20.5625 26.7969L20.2344 26.6L19.9063 26.775L19.9719 26.3922L19.7094 26.1188L20.0922 26.075L20.2672 25.725L20.4204 26.086L20.7922 26.1516L20.5188 26.4141M21.6235 31.1719L21.2954 30.986L20.9563 31.15L21.0329 30.7782L20.7704 30.4938L21.1422 30.45L21.3172 30.1219L21.4813 30.461L21.8532 30.5375L21.5688 30.7891M32.5719 25.1782L32.2875 25.0141L31.9813 25.1563L32.0469 24.8282L31.8282 24.5766L32.1563 24.5438L32.3094 24.2375L32.4516 24.5547L32.7797 24.6094L32.5282 24.8391M31.9813 28.0329L31.7188 27.8907L31.4891 28L31.5329 27.7375L31.3579 27.5516L31.6204 27.5188L31.7407 27.2782L31.85 27.5297L32.1125 27.5735L31.9157 27.7485M20.0594 31.9594L19.8407 31.8282L19.611 31.9375L19.6547 31.686L19.4797 31.5L19.7422 31.4782L19.8516 31.2594L19.961 31.4782L20.2125 31.5329L20.0266 31.7079M36.7172 32.9657L36.5313 32.8782L36.3454 32.9547L36.3891 32.7688L36.2469 32.6266L36.4547 32.6047L36.5532 32.4407L36.6297 32.6157L36.8375 32.6485L36.6844 32.7797" fill="#FFFFEF"/>
<path fill-rule="evenodd" clip-rule="evenodd" d="M20.0704 31.9703L19.8517 31.839L19.622 31.9484L19.6767 31.6968L19.4907 31.5109L19.7423 31.489L19.8626 31.2703L19.972 31.489L20.2235 31.5437L20.0376 31.7187" fill="#FFFFEF"/>
<path fill-rule="evenodd" clip-rule="evenodd" d="M20.0704 31.9703L19.8517 31.839L19.622 31.9484L19.6767 31.6968L19.4907 31.5109L19.7423 31.489L19.8626 31.2703L19.972 31.489L20.2235 31.5437L20.0376 31.7187M23.5595 31.9703L23.3407 31.839L23.122 31.9484L23.1657 31.6968L22.9907 31.5109L23.2423 31.489L23.3517 31.2593L23.461 31.489L23.7126 31.5437L23.5267 31.7187M23.122 33.1406L22.9032 33.0093L22.6845 33.1187L22.7282 32.8671L22.5532 32.6812L22.8048 32.6484L22.9142 32.4296L23.0235 32.6484L23.2751 32.7031L23.0892 32.8781M30.3845 31.0187L30.1657 30.8875L29.936 30.9968L29.9798 30.7453L29.8048 30.5593L30.0563 30.5375L30.1767 30.3078L30.286 30.5375L30.5267 30.5812L30.3407 30.7562M28.2517 31.0187L28.0329 30.8875L27.8032 30.9968L27.8579 30.7453L27.6829 30.5593L27.9345 30.5375L28.0438 30.3078L28.1532 30.5375L28.4048 30.5812L28.2188 30.7562M22.4767 30.275L22.3454 30.1984L22.2032 30.264L22.2251 30.1L22.1157 29.9906L22.2798 29.9687L22.3563 29.8265L22.411 29.9796L22.5751 30.0015L22.4657 30.1109M36.4438 33.9062L36.2251 33.7859L35.9954 33.8953L36.0501 33.6437L35.8751 33.4578L36.1267 33.425L36.236 33.2062L36.3454 33.425L36.597 33.4796L36.411 33.6546M34.661 34.1359L34.486 34.0265L34.3001 34.1359L34.3438 33.9171L34.1907 33.764L34.4095 33.7421L34.497 33.5562L34.5845 33.7421L34.8032 33.7859L34.6392 33.9281M35.5142 34.125L35.3392 34.0156L35.1642 34.114L35.197 33.9171L35.0657 33.775L35.2626 33.7531L35.3501 33.5781L35.4267 33.7531L35.6235 33.7859L35.4813 33.9281M37.9095 32.025L37.7454 31.9265L37.5704 32.014L37.6142 31.8281L37.4829 31.6859L37.6688 31.664L37.7563 31.5L37.8329 31.675L38.0188 31.7078L37.8767 31.839M34.672 35.3171L34.4532 35.1968L34.2345 35.3062L34.2892 35.0656L34.1142 34.9015L34.3548 34.8687L34.4751 34.6609L34.5845 34.8796L34.8142 34.9234L34.6392 35.0765M34.6829 36.2687L34.486 36.1593L34.2892 36.2578L34.3329 36.0171L34.1798 35.8531L34.3985 35.8203L34.5079 35.6125L34.5954 35.8312L34.8142 35.875L34.6501 36.0281M33.0642 34.125L32.9001 34.0265L32.7251 34.114L32.7688 33.9171L32.6376 33.7859L32.8235 33.764L32.911 33.589L32.9876 33.764L33.1735 33.7968L33.0313 33.9281M31.5548 34.125L31.3907 34.0265L31.2157 34.114L31.2595 33.9171L31.1282 33.7859L31.3142 33.764L31.4017 33.589L31.4782 33.764L31.6642 33.7968L31.5329 33.9281M28.9845 31.8718L28.8204 31.7734L28.6454 31.8609L28.6892 31.675L28.5579 31.5328L28.7438 31.5109L28.8313 31.3468L28.9079 31.5218L29.0938 31.5546L28.9517 31.675M29.2688 36.4328L29.1267 36.3562L28.9845 36.4328L29.0173 36.2687L28.9079 36.1593L29.061 36.1265L29.1376 35.9843L29.2032 36.1375L29.3673 36.1593L29.247 36.2687M25.397 29.05L25.0688 28.864L24.7298 29.0281L24.8063 28.6562L24.5438 28.3718L24.9157 28.3281L25.0907 27.989L25.2548 28.339L25.6267 28.4046L25.3423 28.6671" fill="#FFFFEF"/>
<path fill-rule="evenodd" clip-rule="evenodd" d="M38.8391 31.8282C39.0449 31.2919 39.2059 30.7395 39.3204 30.1766C33.6766 25.211 27.3766 22.6625 19.4141 23.1875C19.1289 23.745 18.8946 24.327 18.7141 24.9266C22.367 24.5577 26.0564 24.9824 29.5299 26.1717C33.0034 27.361 36.1789 29.2868 38.8391 31.8172V31.8282Z" fill="white"/>
<path d="M36.3016 29.0281L36.4984 29.1375C36.4678 29.1983 36.46 29.2682 36.4766 29.3343C36.4875 29.3781 36.5313 29.4328 36.5859 29.4656C36.6516 29.5093 36.7063 29.5312 36.7609 29.5312C36.8047 29.5312 36.8484 29.4984 36.8703 29.4656C36.8813 29.4437 36.8922 29.4218 36.8813 29.389L36.8484 29.3015L36.7172 29.1593C36.6474 29.0884 36.595 29.0023 36.5641 28.9078C36.5449 28.8366 36.5521 28.761 36.5842 28.6947C36.6164 28.6284 36.6714 28.5759 36.7391 28.5468C36.7974 28.521 36.8622 28.5134 36.925 28.525C37.004 28.5422 37.0785 28.5757 37.1438 28.6234C37.2386 28.69 37.314 28.7806 37.3625 28.8859C37.3757 28.9343 37.3777 28.9851 37.3682 29.0344C37.3587 29.0837 37.3381 29.1302 37.3078 29.1703L37.1109 29.05C37.1328 28.9953 37.1438 28.9406 37.1328 28.8968C37.1219 28.864 37.0781 28.8203 37.0234 28.7875C36.9688 28.7437 36.9141 28.7328 36.8703 28.7328C36.8577 28.7332 36.8452 28.7363 36.8339 28.742C36.8226 28.7476 36.8126 28.7557 36.8047 28.7656C36.7971 28.7766 36.7922 28.7893 36.7903 28.8026C36.7884 28.8159 36.7896 28.8294 36.7938 28.8421C36.7938 28.8859 36.8484 28.9515 36.925 29.0281L37.0891 29.2468C37.1189 29.3013 37.1327 29.363 37.1288 29.425C37.1249 29.4869 37.1036 29.5465 37.0672 29.5968C37.029 29.651 36.9758 29.6929 36.9141 29.7171C36.849 29.7469 36.7761 29.7546 36.7063 29.739C36.6233 29.7179 36.5453 29.6807 36.4766 29.6296C36.3733 29.5676 36.2956 29.4706 36.2578 29.3562C36.225 29.2578 36.2359 29.1484 36.3016 29.0281ZM35.3391 28.4046L35.5578 28.514C35.5322 28.5686 35.5245 28.6298 35.5359 28.689C35.5469 28.7437 35.5906 28.7984 35.6453 28.8312C35.7109 28.875 35.7656 28.8859 35.8203 28.875C35.8641 28.875 35.9078 28.8531 35.9297 28.8093C35.9401 28.7891 35.9439 28.7662 35.9406 28.7437C35.9406 28.7109 35.9297 28.689 35.8969 28.6562L35.7656 28.514C35.6936 28.4471 35.6375 28.3649 35.6016 28.2734C35.5871 28.23 35.5825 28.1838 35.5882 28.1384C35.5938 28.093 35.6096 28.0494 35.6344 28.0109C35.6669 27.9627 35.7124 27.9248 35.7656 27.9015C35.8242 27.8763 35.8888 27.8687 35.9516 27.8796C36.0172 27.8796 36.0828 27.9125 36.1703 27.9671C36.2797 28.0437 36.3672 28.1203 36.3891 28.2187C36.4054 28.2655 36.411 28.3154 36.4053 28.3647C36.3996 28.4139 36.3828 28.4612 36.3563 28.5031L36.1484 28.3828C36.1813 28.3281 36.1813 28.2734 36.1703 28.2406C36.1484 28.1968 36.1156 28.164 36.0609 28.1312C36.014 28.095 35.9562 28.0757 35.8969 28.0765C35.8833 28.0782 35.8703 28.083 35.8589 28.0906C35.8475 28.0982 35.838 28.1083 35.8313 28.1203C35.8254 28.1322 35.8224 28.1453 35.8224 28.1585C35.8224 28.1718 35.8254 28.1849 35.8313 28.1968C35.8313 28.2296 35.8859 28.2953 35.9625 28.3828C36.05 28.4593 36.1047 28.5359 36.1375 28.5796C36.1712 28.6343 36.1881 28.6976 36.1861 28.7617C36.1842 28.8259 36.1635 28.8881 36.1266 28.9406C36.0893 28.9973 36.0364 29.0419 35.9743 29.0691C35.9122 29.0963 35.8435 29.1048 35.7766 29.0937C35.6907 29.077 35.6089 29.0435 35.5359 28.9953C35.4311 28.9372 35.3499 28.8444 35.3062 28.7328C35.2751 28.6232 35.2868 28.5059 35.3391 28.4046ZM34.1578 28.0765L34.7703 27.0921L35.5031 27.5296L35.3938 27.7046L34.8687 27.3765L34.7266 27.5953L35.2297 27.9015L35.1203 28.0765L34.6281 27.7703L34.4641 28.0437L35.0109 28.3718L34.9125 28.5468L34.1578 28.0875V28.0765ZM32.4297 26.6656L32.5281 26.4906L32.9656 26.7312L32.7578 27.1359C32.5805 27.1752 32.395 27.152 32.2328 27.0703C32.135 27.0195 32.052 26.9441 31.9922 26.8515C31.9344 26.768 31.9038 26.6687 31.9047 26.5671C31.9047 26.4578 31.9375 26.3593 31.9922 26.2609C32.0426 26.1599 32.1179 26.0733 32.2109 26.0093C32.2875 25.9437 32.3969 25.9109 32.5063 25.9109C32.5828 25.9109 32.6813 25.9437 32.7797 25.9875C32.8875 26.0381 32.9758 26.1226 33.0313 26.2281C33.075 26.3156 33.0859 26.414 33.0641 26.5234L32.8344 26.4578C32.8467 26.4022 32.839 26.3441 32.8125 26.2937C32.7834 26.2401 32.7372 26.1977 32.6812 26.1734C32.6424 26.1494 32.5989 26.134 32.5536 26.1283C32.5083 26.1226 32.4623 26.1268 32.4187 26.1406C32.3422 26.1734 32.2656 26.25 32.2 26.3593C32.1467 26.4599 32.1275 26.575 32.1453 26.6875C32.1672 26.775 32.2219 26.8406 32.3203 26.8843L32.4625 26.9281H32.6047L32.6703 26.7968L32.4297 26.6656ZM24.9047 24.8062L25.0797 23.6468L25.4297 23.7015L25.5172 24.5218L25.8453 23.7562L26.1844 23.8109L26.0203 24.9703L25.8016 24.9375L25.9328 24.0296L25.5719 24.9046L25.3531 24.8718L25.2547 23.9203L25.1234 24.839L24.9047 24.8062ZM23.7344 24.664L23.8438 23.5046L24.6969 23.5812L24.6859 23.7781L24.0516 23.7234L24.0297 23.975L24.6094 24.0296L24.5984 24.2265L24.0188 24.1718L23.9859 24.5L24.6312 24.5546L24.6094 24.7515L23.7344 24.664Z" fill="#309E3A"/>
<path d="M19.8406 23.9314C19.8406 23.822 19.8625 23.7126 19.8953 23.6361L20.0047 23.4829L20.1687 23.3736C20.2495 23.3458 20.3351 23.3346 20.4203 23.3407C20.4962 23.3402 20.5714 23.3555 20.641 23.3856C20.7107 23.4158 20.7734 23.4601 20.825 23.5157C20.9343 23.6251 20.9672 23.7673 20.9672 23.9532C20.9672 24.1501 20.9015 24.2923 20.8031 24.3907C20.7483 24.4438 20.6831 24.4849 20.6115 24.5113C20.5399 24.5376 20.4636 24.5487 20.3875 24.5439C20.3124 24.5458 20.2377 24.5322 20.168 24.504C20.0984 24.4757 20.0353 24.4335 19.9828 24.3798C19.9287 24.3216 19.888 24.2523 19.8634 24.1767C19.8389 24.1012 19.8311 24.0212 19.8406 23.9423V23.9314Z" fill="#309E3A"/>
<path d="M20.0813 23.9313C20.0813 24.0626 20.1031 24.172 20.1687 24.2376C20.2234 24.3142 20.3 24.347 20.3875 24.347C20.4322 24.3478 20.4766 24.3395 20.518 24.3226C20.5594 24.3057 20.5968 24.2805 20.6281 24.2485C20.6828 24.1829 20.7156 24.0845 20.7266 23.9532C20.7266 23.811 20.7047 23.7126 20.6391 23.647C20.6125 23.6142 20.5793 23.5874 20.5415 23.5686C20.5038 23.5497 20.4625 23.5391 20.4203 23.5376C20.3109 23.5376 20.2344 23.5704 20.1797 23.636C20.1141 23.7017 20.0813 23.8001 20.0703 23.9313H20.0813Z" fill="#F7FFFF"/>
<path d="M21.2188 24.5438L21.2297 23.3735H21.7219C21.8531 23.3735 21.9406 23.3954 21.9953 23.4173C22.05 23.4392 22.1047 23.472 22.1266 23.5267C22.1484 23.5813 22.1813 23.636 22.1813 23.7126C22.1813 23.8001 22.1484 23.8657 22.1047 23.9313C22.05 23.986 21.9734 24.0188 21.8641 24.0407C21.9187 24.0626 21.9625 24.0954 21.9953 24.1282L22.1266 24.3251L22.2688 24.5438H21.9844L21.8203 24.2923C21.7803 24.2313 21.7364 24.1728 21.6891 24.1173C21.6708 24.0979 21.6484 24.0829 21.6234 24.0735C21.5882 24.0609 21.5514 24.0536 21.5141 24.0517H21.4594V24.5438H21.2188Z" fill="#309E3A"/>
<path d="M21.4595 23.8657H21.6345C21.7071 23.8747 21.7806 23.8747 21.8532 23.8657L21.9079 23.811C21.9298 23.7891 21.9407 23.7563 21.9407 23.7235C21.9407 23.6797 21.9298 23.6469 21.9079 23.625C21.8848 23.6006 21.8538 23.5851 21.8204 23.5813H21.4704V23.8657H21.4595Z" fill="white"/>
<path d="M22.5532 23.4282L22.9797 23.4501C23.0538 23.4512 23.1274 23.4623 23.1985 23.4829C23.2608 23.5064 23.3169 23.5438 23.3625 23.5923C23.4136 23.6528 23.4509 23.7237 23.4719 23.8001C23.4938 23.8767 23.4938 23.9642 23.4938 24.0735C23.4971 24.1573 23.4821 24.2407 23.45 24.3182C23.4179 24.3956 23.3694 24.4651 23.3079 24.522C23.2641 24.5548 23.2094 24.5876 23.1438 24.6095H22.925L22.4875 24.5985L22.5532 23.4282Z" fill="#309E3A"/>
<path d="M22.7718 23.636L22.739 24.4016L22.914 24.4235H23.0562L23.1546 24.3688C23.1875 24.3469 23.1984 24.3141 23.2203 24.2594L23.2531 24.0407L23.2421 23.8438C23.2203 23.7891 23.2093 23.7563 23.1765 23.7344C23.1474 23.7022 23.1093 23.6793 23.0671 23.6688C23.0059 23.656 22.9437 23.6487 22.8812 23.6469H22.7718V23.636Z" fill="white"/>
<path d="M28.2734 25.5171L28.5469 24.3796L28.9078 24.4671C29.05 24.5 29.1375 24.5328 29.1812 24.5546C29.2359 24.5875 29.2906 24.6312 29.3125 24.6968C29.3453 24.7734 29.3453 24.85 29.3234 24.9375C29.3138 24.9939 29.2895 25.0468 29.253 25.0909C29.2166 25.135 29.1692 25.1689 29.1156 25.189C29.078 25.2075 29.0371 25.2187 28.9953 25.2218C28.9139 25.2148 28.8334 25.2001 28.7547 25.1781L28.6016 25.1453L28.4922 25.5718L28.2734 25.5171Z" fill="#309E3A"/>
<path d="M28.7218 24.6311L28.6453 24.9592L28.7765 24.9811C28.864 25.003 28.9296 25.0139 28.9625 25.003C28.9927 24.9999 29.0214 24.9878 29.0447 24.9683C29.0681 24.9488 29.0852 24.9228 29.0937 24.8936L29.0828 24.7733C29.0639 24.7379 29.0328 24.7107 28.9953 24.6967L28.8312 24.653L28.7218 24.6311Z" fill="white"/>
<path d="M29.3562 25.8454L29.739 24.7407L30.2093 24.9048C30.2946 24.9288 30.3757 24.9657 30.45 25.0142C30.4937 25.0579 30.5265 25.1126 30.5484 25.1782C30.5703 25.2438 30.5484 25.2985 30.5265 25.3642C30.5046 25.4517 30.45 25.5063 30.3843 25.5392C30.3467 25.5611 30.305 25.5752 30.2618 25.5809C30.2187 25.5865 30.1748 25.5835 30.1328 25.572L30.2203 25.7032L30.2859 25.922L30.3406 26.1845L30.0781 26.097L30.0015 25.8017C29.9844 25.731 29.9625 25.6615 29.9359 25.5938C29.9265 25.5689 29.9115 25.5465 29.8921 25.5282C29.8589 25.5041 29.822 25.4856 29.7828 25.4735L29.739 25.4626L29.575 25.922L29.3562 25.8454Z" fill="#309E3A"/>
<path d="M29.7937 25.2875L29.9578 25.3422L30.1656 25.3969C30.1984 25.3969 30.2203 25.3969 30.2421 25.375L30.2968 25.2985V25.1891C30.2829 25.1605 30.2598 25.1374 30.2312 25.1235L30.0671 25.0688L29.8921 25.0032L29.7937 25.2875Z" fill="white"/>
<path d="M30.7234 25.8015C30.7512 25.7014 30.7996 25.6082 30.8656 25.528C30.8984 25.4733 30.9531 25.4405 31.0078 25.4077C31.0618 25.3779 31.1214 25.3593 31.1828 25.353C31.2593 25.353 31.3468 25.353 31.4343 25.3858C31.5086 25.4044 31.5781 25.4383 31.6383 25.4854C31.6986 25.5325 31.7484 25.5918 31.7843 25.6593C31.85 25.7905 31.8609 25.9546 31.7953 26.1296C31.7772 26.2083 31.7437 26.2826 31.6968 26.3483C31.6498 26.414 31.5904 26.4698 31.5218 26.5124C31.4544 26.546 31.3807 26.5653 31.3054 26.5691C31.2301 26.5728 31.1548 26.561 31.0843 26.5343C31.0101 26.5157 30.9406 26.4818 30.8803 26.4347C30.82 26.3876 30.7703 26.3284 30.7343 26.2608C30.67 26.1152 30.6661 25.95 30.7234 25.8015Z" fill="#309E3A"/>
<path d="M30.9531 25.8672C30.9203 25.9875 30.9203 26.0859 30.9531 26.1734C30.9968 26.2609 31.0624 26.3156 31.1499 26.3484C31.2374 26.3703 31.314 26.3593 31.3906 26.3156C31.4671 26.2718 31.5328 26.1843 31.5765 26.0531C31.6093 25.9218 31.6093 25.8234 31.5765 25.7359C31.5581 25.6955 31.5309 25.6598 31.4968 25.6314C31.4627 25.603 31.4227 25.5826 31.3796 25.5718C31.3379 25.5583 31.2937 25.5542 31.2502 25.5599C31.2066 25.5655 31.1649 25.5808 31.1281 25.6047C31.0515 25.6484 30.9968 25.7359 30.9531 25.8672Z" fill="white"/>
<path d="M32.9985 27.4312L33.5345 26.3921L33.972 26.6108C34.0813 26.6765 34.1579 26.7202 34.1907 26.764C34.2345 26.8187 34.2563 26.8733 34.2673 26.928C34.2782 26.9827 34.2673 27.0593 34.2235 27.114C34.1907 27.1905 34.136 27.2452 34.0595 27.278C33.9829 27.2999 33.9063 27.2999 33.8079 27.2671C33.8407 27.3108 33.8626 27.3655 33.8735 27.4093L33.9063 27.639L33.9282 27.9124L33.6767 27.7812L33.6438 27.4749L33.611 27.2562C33.6016 27.2312 33.5867 27.2088 33.5673 27.1905C33.5381 27.1637 33.5049 27.1415 33.4688 27.1249L33.4251 27.103L33.2063 27.5405L32.9985 27.4312Z" fill="#309E3A"/>
<path d="M33.5127 26.939L33.6658 27.0156L33.8627 27.1031C33.8955 27.1031 33.9174 27.1031 33.9393 27.0812C33.9687 27.0659 33.9929 27.0421 34.0085 27.0128C34.0241 26.9835 34.0305 26.9501 34.0268 26.9171C34.015 26.8845 33.9916 26.8572 33.9611 26.8406C33.9148 26.8097 33.8674 26.7805 33.8189 26.7531L33.6549 26.6765L33.5127 26.939Z" fill="white"/>
<path d="M37.3186 29.564C37.3843 29.4546 37.4499 29.389 37.5374 29.3452C37.5908 29.3096 37.65 29.2837 37.7124 29.2687C37.7702 29.2575 37.8296 29.2575 37.8874 29.2687C37.964 29.2796 38.0515 29.3124 38.128 29.378C38.1927 29.4175 38.2484 29.47 38.2917 29.5321C38.335 29.5942 38.3649 29.6647 38.3796 29.739C38.3955 29.8981 38.3527 30.0576 38.2593 30.1874C38.2177 30.258 38.1624 30.3195 38.0967 30.3684C38.0309 30.4172 37.956 30.4524 37.8765 30.4718C37.8024 30.4856 37.7263 30.4841 37.6529 30.4671C37.5795 30.4502 37.5104 30.4183 37.4499 30.3734C37.3853 30.3339 37.3295 30.2814 37.2862 30.2193C37.2429 30.1572 37.213 30.0867 37.1983 30.0124C37.1861 29.9341 37.1895 29.8542 37.2083 29.7773C37.2271 29.7003 37.2608 29.6278 37.3077 29.564H37.3186Z" fill="#309E3A"/>
<path d="M37.5156 29.6843C37.45 29.7937 37.4172 29.9031 37.4281 29.9906C37.4356 30.0348 37.4521 30.0771 37.4765 30.1147C37.501 30.1523 37.5329 30.1845 37.5703 30.2093C37.6049 30.2334 37.6443 30.2497 37.6859 30.2573C37.7274 30.2648 37.77 30.2634 37.8109 30.2531C37.8984 30.2312 37.9859 30.1656 38.0625 30.0453C38.139 29.9359 38.1718 29.8374 38.15 29.7499C38.15 29.6624 38.0953 29.5968 38.0187 29.5312C37.9422 29.4656 37.8547 29.4656 37.7672 29.4874C37.6797 29.5093 37.6031 29.5749 37.5265 29.6843H37.5156Z" fill="white"/>
<path d="M26.95 25.0468L27.1359 24.2156L27.7484 24.3578L27.7156 24.5L27.2781 24.3906L27.2343 24.5765L27.639 24.675L27.6062 24.8171L27.2015 24.7078L27.1468 24.9375L27.6062 25.0468L27.5734 25.189L26.95 25.0468Z" fill="#309E3A"/>
</g>
<defs>
<clipPath id="clip0_381_15770">
<rect width="56" height="56" rx="28" fill="white"/>
</clipPath>
</defs>
</svg>
